<svg width="868" height="893" viewBox="0 0 868 893" fill="none" xmlns="http://www.w3.org/2000/svg">
<path d="M500.995 387.988L501.983 287.992L301.992 286.017L301.005 386.012L500.995 387.988ZM297.005 791.012C296.459 846.238 340.787 891.45 396.012 891.995C451.238 892.541 496.45 848.213 496.995 792.988L297.005 791.012ZM301.005 386.012L297.005 791.012L496.995 792.988L500.995 387.988L301.005 386.012Z" fill="#2496FF"/>
<path d="M868 294.5C868 255.826 860.654 217.53 846.382 181.8C832.109 146.069 811.19 113.604 784.818 86.257C758.446 58.9102 727.139 37.2175 692.682 22.4175C658.226 7.61746 621.295 -6.30084e-06 584 0C546.705 6.30085e-06 509.774 7.61748 475.318 22.4175C440.861 37.2175 409.553 58.9102 383.182 86.2571C356.81 113.604 335.891 146.069 321.618 181.8C307.346 217.53 300 255.826 300 294.5L584 294.5H868Z" fill="#38FF64"/>
<path d="M300 540C256.27 540 213.069 532.161 173.423 517.031C133.776 501.902 98.6424 479.848 70.4823 452.414C42.3221 424.98 21.8165 392.83 10.4014 358.215C-1.01367 323.6 -3.06213 287.357 4.39948 252.025C11.8611 216.692 28.6524 183.125 53.5973 153.673C78.5423 124.221 111.038 99.5968 148.808 81.5252C186.578 63.4535 228.709 52.3713 272.252 49.0546C315.794 45.7379 359.694 50.2669 400.877 62.3245L300 294L300 540Z" fill="#FF2727"/>
</svg>
